<svg width="22" height="22" viewBox="0 0 22 22" fill="none" xmlns="http://www.w3.org/2000/svg">
<path d="M10.9999 7C10.7347 7 10.4804 7.10536 10.2928 7.29289C10.1053 7.48043 9.99994 7.73478 9.99994 8C9.99994 8.26522 10.1053 8.51957 10.2928 8.70711C10.4804 8.89464 10.7347 9 10.9999 9C11.5304 9 12.0391 9.21071 12.4142 9.58579C12.7892 9.96086 12.9999 10.4696 12.9999 11C12.9999 11.5304 12.7892 12.0391 12.4142 12.4142C12.0391 12.7893 11.5304 13 10.9999 13C10.7347 13 10.4804 13.1054 10.2928 13.2929C10.1053 13.4804 9.99994 13.7348 9.99994 14C9.99994 14.2652 10.1053 14.5196 10.2928 14.7071C10.4804 14.8946 10.7347 15 10.9999 15C12.0608 15 13.0782 14.5786 13.8284 13.8284C14.5785 13.0783 14.9999 12.0609 14.9999 11C14.9999 9.93913 14.5785 8.92172 13.8284 8.17157C13.0782 7.42143 12.0608 7 10.9999 7ZM20.7099 10.29L18.3599 8V4.64C18.3599 4.37478 18.2546 4.12043 18.067 3.93289C17.8795 3.74536 17.6252 3.64 17.3599 3.64H14.0499L11.7099 1.29C11.617 1.19627 11.5064 1.12188 11.3845 1.07111C11.2627 1.02034 11.132 0.994202 10.9999 0.994202C10.8679 0.994202 10.7372 1.02034 10.6154 1.07111C10.4935 1.12188 10.3829 1.19627 10.2899 1.29L7.99994 3.64H4.63994C4.37472 3.64 4.12037 3.74536 3.93283 3.93289C3.7453 4.12043 3.63994 4.37478 3.63994 4.64V8L1.28994 10.29C1.19621 10.383 1.12182 10.4936 1.07105 10.6154C1.02028 10.7373 0.994141 10.868 0.994141 11C0.994141 11.132 1.02028 11.2627 1.07105 11.3846C1.12182 11.5064 1.19621 11.617 1.28994 11.71L3.63994 14.05V17.36C3.63994 17.6252 3.7453 17.8796 3.93283 18.0671C4.12037 18.2546 4.37472 18.36 4.63994 18.36H7.99994L10.3399 20.71C10.4329 20.8037 10.5435 20.8781 10.6654 20.9289C10.7872 20.9797 10.9179 21.0058 11.0499 21.0058C11.182 21.0058 11.3127 20.9797 11.4345 20.9289C11.5564 20.8781 11.667 20.8037 11.7599 20.71L14.0999 18.36H17.4099C17.6752 18.36 17.9295 18.2546 18.117 18.0671C18.3046 17.8796 18.4099 17.6252 18.4099 17.36V14.05L20.7599 11.71C20.8505 11.6138 20.921 11.5006 20.9676 11.3769C21.0141 11.2533 21.0356 11.1216 21.031 10.9896C21.0263 10.8575 20.9956 10.7277 20.9405 10.6077C20.8854 10.4876 20.807 10.3796 20.7099 10.29ZM16.6599 12.93C16.5655 13.0226 16.4903 13.1331 16.4388 13.2549C16.3873 13.3768 16.3605 13.5077 16.3599 13.64V16.36H13.6399C13.5076 16.3605 13.3767 16.3873 13.2549 16.4388C13.133 16.4903 13.0226 16.5655 12.9299 16.66L10.9999 18.59L9.06994 16.66C8.97732 16.5655 8.86688 16.4903 8.745 16.4388C8.62313 16.3873 8.49225 16.3605 8.35994 16.36H5.63994V13.64C5.63939 13.5077 5.61259 13.3768 5.56109 13.2549C5.5096 13.1331 5.43443 13.0226 5.33994 12.93L3.40994 11L5.33994 9.07C5.43443 8.97738 5.5096 8.86694 5.56109 8.74506C5.61259 8.62319 5.63939 8.49231 5.63994 8.36V5.64H8.35994C8.49225 5.63945 8.62313 5.61265 8.745 5.56115C8.86688 5.50966 8.97732 5.43449 9.06994 5.34L10.9999 3.41L12.9299 5.34C13.0226 5.43449 13.133 5.50966 13.2549 5.56115C13.3767 5.61265 13.5076 5.63945 13.6399 5.64H16.3599V8.36C16.3605 8.49231 16.3873 8.62319 16.4388 8.74506C16.4903 8.86694 16.5655 8.97738 16.6599 9.07L18.5899 11L16.6599 12.93Z" fill="#A3ABB2"/>
</svg>
